HIERARCHY
ROOT hip
{
	OFFSET 0.000000 0.000000 0.000000 
	CHANNELS 6 Xposition Yposition Zposition Xrotation Zrotation Yrotation
	JOINT abdomen
	{
		OFFSET 0.000000 3.402643 0.000000 
		CHANNELS 3 Xrotation Zrotation Yrotation
		JOINT chest
		{
			OFFSET 0.000000 8.438565 -0.680529 
			CHANNELS 3 Xrotation Zrotation Yrotation
			JOINT neck
			{
				OFFSET 0.000000 10.207942 -0.272212 
				CHANNELS 3 Xrotation Zrotation Yrotation
				JOINT head
				{
					OFFSET 0.000000 3.130431 0.000000 
					CHANNELS 3 Xrotation Zrotation Yrotation
					End Site
					{
						OFFSET 0.000000 3.130435 0.000000 
					}
				}
			}
			JOINT lCollar
			{
				OFFSET 3.470700 6.669187 -0.816635 
				CHANNELS 3 Yrotation Zrotation Xrotation
				JOINT lShldr
				{
					OFFSET 3.198488 0.000000 0.000000 
					CHANNELS 3 Zrotation Yrotation Xrotation
					JOINT lForeArm
					{
						OFFSET 10.139888 0.000000 0.000000 
						CHANNELS 3 Yrotation Zrotation Xrotation
						JOINT lHand
						{
							OFFSET 8.370511 0.000000 0.000000 
							CHANNELS 3 Zrotation Yrotation Xrotation
							End Site
							{
								OFFSET 4.083176 0.000000 0.000000 
							}
						}
					}
				}
			}
			JOINT rCollar
			{
				OFFSET -3.470700 6.669187 -0.816635 
				CHANNELS 3 Yrotation Zrotation Xrotation
				JOINT rShldr
				{
					OFFSET -3.198488 0.000000 0.000000 
					CHANNELS 3 Zrotation Yrotation Xrotation
					JOINT rForeArm
					{
						OFFSET -10.139888 0.000000 0.000000 
						CHANNELS 3 Yrotation Zrotation Xrotation
						JOINT rHand
						{
							OFFSET -8.370511 0.000000 0.000000 
							CHANNELS 3 Zrotation Yrotation Xrotation
							End Site
							{
								OFFSET -4.083176 0.000000 0.000000 
							}
						}
					}
				}
			}
		}
	}
	JOINT lThigh
	{
		OFFSET 5.308129 -1.633274 1.361059 
		CHANNELS 3 Xrotation Zrotation Yrotation
		JOINT lShin
		{
			OFFSET -2.041588 -20.007561 0.000000 
			CHANNELS 3 Xrotation Zrotation Yrotation
			JOINT lFoot
			{
				OFFSET 0.000000 -19.190928 -1.224953 
				CHANNELS 3 Xrotation Yrotation Zrotation
				End Site
				{
					OFFSET 0.000000 -2.449906 4.627600 
				}
			}
		}
	}
	JOINT rThigh
	{
		OFFSET -5.308129 -1.633274 1.361059 
		CHANNELS 3 Xrotation Zrotation Yrotation
		JOINT rShin
		{
			OFFSET 2.041588 -20.007561 0.000000 
			CHANNELS 3 Xrotation Zrotation Yrotation
			JOINT rFoot
			{
				OFFSET 0.000000 -19.190928 -1.224953 
				CHANNELS 3 Xrotation Yrotation Zrotation
				End Site
				{
					OFFSET 0.000000 -2.449906 4.627600 
				}
			}
		}
	}
}
MOTION
Frames: 20
Frame Time: 0.016667
-3.926929 52.189228 5.293369 -12.292024 -2.243575 -8.004491 24.437458 6.863447 -1.873829 4.406527 0.497311 -4.541068 7.169478 7.073509 0.617037 19.281765 -8.540835 6.971435 -22.573994 -11.779721 -0.623273 -59.647900 -3.794874 -2.651267 -74.600357 5.000000 -5.972888 5.589111 -5.930058 -45.000000 14.273306 -3.966773 0.207889 71.890549 38.343899 34.396614 74.033653 5.000000 3.664278 17.373110 -12.692615 -42.202686 -4.920374 19.543747 3.489209 4.910728 -4.725480 -0.615742 10.839549 0.030738 -12.187685 18.236197 -4.091167 -3.481498 13.655030 5.464978 1.512768 -16.614986 -11.360110 1.997199 
-4.006801 52.288860 4.971001 -12.317916 -1.736385 -6.624255 24.492559 6.766714 -1.837015 4.387419 0.497334 -4.589898 6.775208 6.587023 0.530185 18.973804 -8.606105 6.568297 -22.167604 -12.111353 -0.640388 -59.910473 -3.188948 -3.439652 -73.662338 5.000000 -5.851346 5.057745 -6.970656 -45.000000 14.751475 -3.869247 0.202843 71.000206 37.664536 33.136795 73.586952 5.000000 4.265101 17.029776 -12.270392 -42.227154 -4.814357 19.012896 4.250110 6.090098 -4.685266 -0.698216 9.247407 -0.079789 -12.068459 18.511835 -3.808589 -4.231450 12.488371 5.271757 1.325833 -15.820378 -11.780754 1.909869 
-4.077494 52.378742 4.669261 -12.337797 -1.235042 -5.245446 24.546167 6.668134 -1.822853 4.368312 0.497356 -4.609431 6.392885 6.119782 0.441616 18.687746 -8.671206 6.154048 -21.780857 -12.442985 -0.659584 -60.178638 -2.589632 -4.232738 -72.716957 5.000000 -5.680300 4.531457 -8.032658 -45.000000 15.229589 -3.752217 0.196787 70.135201 36.955788 31.881973 73.147690 5.000000 4.886451 16.667118 -11.897349 -42.208763 -4.695803 18.497364 4.980316 7.315578 -4.616362 -0.782463 7.653943 -0.205487 -11.975891 18.794735 -3.515400 -4.977451 11.310976 5.063885 1.161387 -15.092638 -12.246986 1.843067 
-4.139296 52.456528 4.387690 -12.340544 -0.769728 -3.867626 24.548935 6.546228 -1.861411 4.369855 0.468100 -4.570371 6.037707 5.785244 0.383116 18.461054 -8.640676 5.609896 -21.461395 -12.677080 -0.671677 -60.473061 -1.984487 -5.055964 -71.669426 5.000000 -5.497651 3.851819 -9.175846 -45.000000 15.658663 -3.566919 0.187197 69.361206 36.117661 30.658424 72.851463 5.000000 5.514430 16.250408 -11.771736 -42.057167 -4.579303 18.079430 5.385914 8.883562 -4.414923 -0.844331 6.598966 -0.361110 -11.781117 19.048519 -3.291129 -5.520832 10.292419 4.939134 1.028792 -14.441364 -12.850362 1.832038 
-4.189861 52.522587 4.128192 -12.340309 -0.302446 -2.500068 24.542755 6.423502 -1.899097 4.380649 0.448596 -4.511779 5.684467 5.461783 0.332751 18.246414 -8.609570 5.046426 -21.151634 -12.901425 -0.683256 -60.783337 -1.387076 -5.906234 -70.611702 5.000000 -5.252848 3.173742 -10.354659 -45.000000 16.087767 -3.381619 0.177605 68.628029 35.250973 29.459650 72.576263 5.000000 6.145996 15.824920 -11.682899 -41.868435 -4.453036 17.694262 5.792290 10.505234 -4.179215 -0.941786 5.574788 -0.445656 -11.543165 19.308332 -3.066004 -6.043021 9.253234 4.791092 0.896331 -13.832452 -13.449336 1.878659 
-4.227598 52.579002 3.886366 -12.327362 0.156218 -1.152339 24.556683 6.258936 -1.934018 4.363103 0.409584 -4.482484 5.363285 5.179828 0.295784 18.070856 -8.519612 4.442876 -20.870733 -13.086756 -0.695026 -61.131531 -0.774201 -6.791677 -69.490143 5.000000 -4.957282 2.431335 -11.584680 -45.000000 16.526529 -3.147557 0.165486 67.921761 34.273895 28.257776 72.366447 5.000000 6.724065 15.404868 -11.707438 -41.532513 -4.295808 17.355198 5.993401 12.196014 -3.954455 -0.960825 4.770717 -0.389050 -11.198345 19.559856 -2.910287 -6.511415 8.306508 4.712376 0.826013 -13.270055 -14.099586 1.944587 
-4.252810 52.625511 3.662834 -12.302727 0.605466 0.185640 24.550688 6.056129 -1.974953 4.325978 0.370569 -4.472719 5.081940 4.946136 0.251539 17.923328 -8.380327 3.789605 -20.618671 -13.233075 -0.702593 -61.528446 -0.148564 -7.735259 -68.320618 5.000000 -4.606736 1.623397 -12.862929 -45.000000 16.994537 -2.874485 0.151344 67.240265 33.194798 27.047470 72.218010 5.000000 7.240218 15.007275 -11.853359 -41.041641 -4.150023 17.107132 6.037977 14.048408 -3.671302 -1.018231 4.129870 -0.172065 -10.780598 19.785635 -2.812084 -6.895413 7.445024 4.651246 0.745301 -12.764165 -14.774625 2.026055 
-4.264540 52.662281 3.456523 -12.267239 1.054324 1.504191 24.554773 5.862446 -2.010549 4.279227 0.331562 -4.443365 4.801881 4.713889 0.216940 17.782812 -8.230000 3.137760 -20.376146 -13.359887 -0.709148 -61.933292 0.478530 -8.691054 -67.163345 5.000000 -4.186076 0.831353 -14.148492 -45.000000 17.452822 -2.591660 0.136693 66.579063 32.094353 25.843403 72.082336 5.000000 7.758694 14.608416 -12.008590 -40.522923 -3.984521 16.835264 6.059992 15.882063 -3.389162 -1.036416 3.474034 0.124176 -10.321633 20.021404 -2.714390 -7.298377 6.601778 4.616090 0.687604 -12.313851 -15.431880 2.119257 
-4.264688 52.690369 3.264843 -12.205216 1.453385 2.764764 24.540367 5.664232 -2.069614 4.243048 0.282818 -4.365246 4.542648 4.521709 0.186926 17.623177 -8.019950 2.474871 -20.123245 -13.437944 -0.713186 -62.389099 1.127126 -9.712144 -66.063286 5.000000 -3.692354 0.007424 -15.425985 -45.000000 17.911001 -2.221062 0.117491 65.905800 30.867113 24.538612 72.072357 5.000000 8.241419 14.234734 -12.275967 -39.848877 -3.798109 16.711985 5.934923 17.693668 -3.127244 -1.076078 2.840132 0.652396 -9.910149 20.228540 -2.656401 -7.672440 5.863891 4.612298 0.600091 -11.910340 -16.053759 2.236803 
-4.252685 52.710598 3.087097 -12.137387 1.831455 4.006227 24.526117 5.457222 -2.131146 4.217074 0.224318 -4.287125 4.284467 4.340634 0.164311 17.468969 -7.789112 1.813379 -19.879990 -13.506246 -0.716719 -62.853271 1.774516 -10.747538 -64.969559 5.000000 -3.137383 -0.814504 -16.709616 -45.000000 18.359539 -1.850463 0.098283 65.255241 29.615929 23.247160 72.076164 5.000000 8.722578 13.854841 -12.564841 -39.144279 -3.583286 16.634678 5.800933 19.502674 -2.890440 -1.112205 2.177337 1.166240 -9.486302 20.422552 -2.617482 -8.051839 5.160703 4.601336 0.515518 -11.514763 -16.612431 2.377787 
-4.225627 52.724678 2.921667 -12.031410 2.149366 5.189214 24.505188 5.267733 -2.133382 4.190931 0.165809 -4.208972 4.046086 4.178868 0.139523 17.286179 -7.508365 1.111918 -19.656012 -13.555040 -0.719246 -63.342197 2.444355 -11.872047 -63.921703 3.526007 -2.493152 -1.580953 -17.977930 -45.000000 18.798357 -1.421348 0.075796 64.574074 28.291275 21.911283 72.124001 5.000000 9.170325 13.544236 -12.794298 -38.369579 -3.358980 16.644333 5.581728 21.190023 -2.669280 -1.096573 1.551105 1.790130 -9.128487 20.562393 -2.539375 -8.413789 4.540346 4.615323 0.505980 -11.164519 -17.266111 2.469032 
-4.185297 52.732864 2.767819 -11.901689 2.407201 6.314488 24.455509 5.098187 -2.106755 4.184183 0.107292 -4.121089 3.807929 4.026753 0.112569 17.063934 -7.167825 0.363379 -19.461212 -13.594079 -0.721267 -63.847748 3.127316 -13.091201 -62.894840 1.888357 -1.769636 -2.308331 -19.216967 -45.000000 19.207996 -0.933718 0.050596 63.836731 26.926334 20.525879 72.243813 5.000000 9.571657 13.297534 -12.983967 -37.535275 -3.114606 16.759140 5.308732 22.796343 -2.465309 -1.122228 0.867169 2.533769 -8.791428 20.659496 -2.480979 -8.782684 3.984799 4.635424 0.502559 -10.881652 -17.870792 2.534180 
-4.131936 52.736843 2.622425 -11.771987 2.663031 7.430149 24.425200 4.937779 -2.075815 4.168038 0.039017 -4.042968 3.570622 3.876093 0.095943 16.843702 -6.835778 -0.393660 -19.264050 -13.626590 -0.713825 -64.371094 3.794302 -14.309252 -61.856121 0.288306 -0.991909 -3.029428 -20.462576 -45.000000 19.617851 -0.455839 0.025896 63.157726 25.527349 19.183836 72.352562 5.000000 9.963593 13.039654 -13.163651 -36.688049 -2.870824 16.869339 5.036097 24.365368 -2.279943 -1.143830 0.207970 3.280425 -8.453348 20.774761 -2.431584 -9.152941 3.413566 4.677740 0.477374 -10.566743 -18.402174 2.653832 
-4.064021 52.736504 2.484349 -11.594887 2.801212 8.467374 24.381178 4.827161 -2.086676 4.150391 0.000000 -3.896485 3.255399 3.773708 0.072004 16.688643 -6.463618 -1.120495 -19.071230 -13.642902 -0.723800 -64.819687 4.536694 -15.695482 -61.045979 -1.452642 -0.064125 -3.697291 -21.568636 -45.000000 19.940033 0.139070 -0.004854 62.332653 24.107313 17.714567 72.591080 5.000000 10.218424 12.854209 -13.280328 -35.753155 -2.528753 17.111502 4.629010 25.435051 -2.178663 -1.109432 -0.371876 3.797472 -8.360045 20.777803 -2.344019 -9.538648 3.004739 4.697821 0.415967 -10.289414 -18.921537 2.756988 
-3.983081 52.733204 2.353674 -11.412670 2.937698 9.505122 24.347221 4.707397 -2.100157 4.132590 -0.039024 -3.740241 2.950670 3.672780 0.057692 16.535219 -6.100337 -1.857042 -18.866407 -13.662437 -0.724816 -65.288834 5.264083 -17.080667 -60.205647 -3.165257 0.917654 -4.379161 -22.673838 -45.000000 20.252771 0.733980 -0.035604 61.568111 22.662573 16.295174 72.821976 5.000000 10.466580 12.668240 -13.394521 -34.817581 -2.197219 17.355080 4.192822 26.493988 -2.075354 -1.062604 -0.911858 4.295849 -8.300746 20.792473 -2.255999 -9.963524 2.599208 4.712341 0.374694 -10.082647 -19.406506 2.854210 
-3.889149 52.729252 2.230562 -11.238226 3.034998 10.435132 24.313805 4.609328 -2.066065 4.125253 -0.097568 -3.603529 2.664947 3.570392 0.033128 16.309486 -5.726775 -2.552692 -18.690884 -13.681971 -0.725831 -65.736389 6.007127 -18.496613 -59.410385 -4.886628 1.962363 -4.949205 -23.686350 -45.000000 20.556068 1.338642 -0.066854 60.787468 21.227257 14.871339 73.051956 5.000000 10.693982 12.504951 -13.438520 -33.967175 -1.806777 17.661821 3.812527 27.281071 -2.044721 -1.053657 -1.372892 4.663850 -8.372718 20.772942 -2.197855 -10.397656 2.245205 4.718813 0.336360 -9.822446 -19.768593 3.013742 
-3.780732 52.724129 2.116296 -11.065627 3.084051 11.266595 24.271105 4.532986 -1.982752 4.147414 -0.165877 -3.466816 2.428745 3.469461 0.018820 16.000643 -5.333529 -3.197937 -18.544661 -13.701498 -0.726843 -66.154114 6.744267 -19.953386 -58.657589 -5.000000 3.068624 -5.392579 -24.605467 -45.000000 20.830437 1.962809 -0.099438 59.994816 19.791342 13.450584 73.311386 5.000000 10.895343 12.359093 -13.407146 -33.192039 -1.289419 17.994822 3.489348 27.682669 -2.034960 -1.084731 -1.747372 4.938240 -8.596266 20.703020 -2.149197 -10.846264 2.022683 4.701874 0.319395 -9.648236 -20.089827 3.146745 
-3.658211 52.719749 2.006651 -10.887945 3.113480 12.059572 24.238546 4.462385 -1.886017 4.168959 -0.224437 -3.330099 2.173089 3.368529 0.004505 15.683599 -4.949841 -3.843318 -18.388540 -13.711276 -0.727353 -66.582085 7.476625 -21.394615 -57.888142 -5.000000 4.219820 -5.830782 -25.475597 -45.000000 21.095388 2.586975 -0.131782 59.235279 18.359825 12.070119 73.551460 5.000000 11.091282 12.236140 -13.358774 -32.467083 -0.761908 18.337591 3.210008 27.984035 -2.054529 -1.126436 -2.104852 5.112216 -8.847770 20.650154 -2.109783 -11.277234 1.775755 4.686047 0.279853 -9.418513 -20.350225 3.317816 
-3.520334 52.717457 1.899947 -10.685230 3.067581 12.713922 24.187428 4.405980 -1.772245 4.199611 -0.273249 -3.154366 1.898520 3.346301 -0.011854 15.396173 -4.585755 -4.457996 -18.251823 -13.711297 -0.727360 -66.975090 8.146728 -22.792459 -57.226551 -5.000000 5.360277 -6.171181 -26.129766 -45.000000 21.292421 3.240397 -0.165624 58.453579 17.029034 10.742216 73.782776 5.000000 11.245874 12.167435 -13.244621 -31.902298 -0.147082 18.665131 3.089952 27.715355 -2.093256 -1.168200 -2.398921 5.055056 -9.277509 20.476418 -2.070870 -11.664131 1.661635 4.644948 0.281307 -9.240565 -20.545813 3.534870 
-3.367188 52.715927 1.798084 -10.468263 3.012464 13.329794 24.126144 4.359019 -1.653654 4.230118 -0.322065 -2.968828 1.614199 3.324072 -0.028214 15.102682 -4.241198 -5.072872 -18.125000 -13.721069 -0.727869 -67.367592 8.809558 -24.175819 -56.561432 -5.000000 6.528026 -6.488411 -26.732641 -45.000000 21.470346 3.903572 -0.199950 57.695747 15.708013 9.446838 73.992737 5.000000 11.401855 12.103687 -13.115992 -31.366222 0.487840 19.008198 3.016074 27.348974 -2.142275 -1.176738 -2.639110 4.974043 -9.686485 20.295517 -2.022123 -12.078757 1.551984 4.579856 0.282150 -9.041116 -20.745359 3.778623 
